# xmcd
#
# Track frame offsets: 
#        150
#        19046
#        40903
#        55761
#        81532
#        93173
#        116027
#        130848
#        148481
#        174027
#        200510
#        221426
#        250426
#        269072
#        289487
#
# Disc length: 4197 seconds
#
# Revision: 0
# Processed by: cddbd v1.5.2PL0 Copyright (c) Steve Scherf et al.
# Submitted via: ExactAudioCopyFreeDBPlugin 1.0
#
DISCID=e910630f
DTITLE=Zola Moon - Undercover
DYEAR=2010
DGENRE=Blues
TTITLE0=I'm Tore Down  
TTITLE1=Love in Vain
TTITLE2=Walkin' Blues
TTITLE3=Piece of My Heart
TTITLE4=Money
TTITLE5=Night Life
TTITLE6=Runaway
TTITLE7=Breakin' Up Somebody's Home
TTITLE8=Secret Agent Man
TTITLE9=I'd Rather Go Blind
TTITLE10=Rock Me Baby
TTITLE11=Ball and Chain
TTITLE12=I Can't Stand The Rain
TTITLE13=Tell Mama
TTITLE14=The Serpent King
EXTD=
EXTT0=
EXTT1=
EXTT2=
EXTT3=
EXTT4=
EXTT5=
EXTT6=
EXTT7=
EXTT8=
EXTT9=
EXTT10=
EXTT11=
EXTT12=
EXTT13=
EXTT14=
PLAYORDER=
